<svg preserveAspectRatio="none" overflow="visible" style="display: block;" width="234" height="234" viewBox="0 0 234 234" fill="none" xmlns="http://www.w3.org/2000/svg">
<g id="Frame">
<path id="Vector" d="M213.045 176.346C212.999 176.46 212.862 176.528 212.748 176.483L31.1467 108.911C31.0324 108.865 30.9639 108.728 31.0096 108.613C31.0553 108.499 31.1924 108.431 31.3066 108.476L212.931 176.048C213.022 176.094 213.091 176.231 213.045 176.346Z" fill="#F2F2F2"/>
<path id="Vector_2" d="M116.314 47.874H73.0336C65.9725 47.874 60.2367 53.6098 60.2367 60.6709V64.5785C59.9168 64.4871 59.5969 64.6699 59.5055 64.9898C59.4826 65.0355 59.4826 65.1041 59.4826 65.1498V68.1662C59.4826 68.4861 59.734 68.7604 60.0768 68.7604C60.1225 68.7604 60.191 68.7603 60.2367 68.7375V73.285C59.9168 73.1936 59.5969 73.3764 59.5055 73.6963C59.4826 73.742 59.4826 73.8105 59.4826 73.8563V81.3744C59.4826 81.6943 59.734 81.9686 60.0768 81.9686C60.1225 81.9686 60.191 81.9686 60.2367 81.9457V84.6879C59.9168 84.5965 59.5969 84.7793 59.5055 85.0992C59.4826 85.1449 59.4826 85.2135 59.4826 85.2592V92.7773C59.4826 93.0973 59.734 93.3715 60.0768 93.3715C60.1225 93.3715 60.191 93.3715 60.2367 93.3486V172.758C60.2367 179.819 65.9725 185.555 73.0336 185.555H116.314C123.376 185.555 129.111 179.819 129.111 172.758V60.6709C129.111 53.6098 123.376 47.874 116.314 47.874ZM126.392 172.849C126.392 178.425 121.867 182.95 116.292 182.95H73.0336C67.4578 182.95 62.9332 178.425 62.9332 172.849V60.6709C62.9332 55.0951 67.4578 50.5705 73.0336 50.5705H116.314C121.89 50.5705 126.415 55.0951 126.415 60.6709V172.849H126.392Z" fill="#3F3D56"/>
<path id="Vector_3" d="M116.314 184.435H73.0336C66.6352 184.435 61.4479 179.248 61.425 172.826V60.6709C61.425 54.2725 66.6123 49.0852 73.0336 49.0623H116.314C122.713 49.0623 127.9 54.2496 127.923 60.6709V172.826C127.9 179.248 122.713 184.435 116.314 184.435Z" fill="#E6E6E6"/>
<path id="Vector_4" d="M117.366 182.63H71.9596C67.6406 182.63 64.1443 179.133 64.1443 174.814V58.7057C64.1443 54.3867 67.6406 50.8904 71.9596 50.8904H77.8781C78.5865 50.8904 79.1807 51.4617 79.1807 52.193C79.1807 54.2953 80.8945 56.0092 82.9969 56.0092H105.734C107.837 56.0092 109.55 54.2953 109.55 52.193C109.55 51.4846 110.122 50.8904 110.853 50.8904H117.388C121.707 50.8904 125.204 54.3867 125.204 58.7057V174.814C125.204 179.133 121.685 182.63 117.366 182.63Z" fill="white"/>
<path id="Vector_5" d="M96.6164 53.5184H91.2006C90.8578 53.5184 90.6064 53.2441 90.6064 52.9242C90.6064 52.6043 90.8807 52.3301 91.2006 52.3301H96.6164C96.9592 52.3301 97.2105 52.6043 97.2105 52.9242C97.2105 53.2441 96.9592 53.5184 96.6164 53.5184Z" fill="white"/>
<path id="Vector_6" d="M100.684 53.0613C100.684 53.2259 100.551 53.3584 100.387 53.3584C100.222 53.3584 100.09 53.2259 100.09 53.0613C100.09 52.8968 100.222 52.7643 100.387 52.7643C100.551 52.7643 100.684 52.8968 100.684 53.0613Z" fill="white"/>
<path id="Vector_7" d="M62.6133 74.3818H126.666V75.0674H62.6133V74.3818Z" fill="#E6E6E6"/>
<path id="Vector_8" d="M62.6133 88.0928H126.666V88.7783H62.6133V88.0928Z" fill="#E6E6E6"/>
<path id="Vector_9" d="M62.6133 116.429H126.666V117.114H62.6133V116.429Z" fill="#E6E6E6"/>
<path id="Vector_10" d="M62.6133 144.765H126.666V145.45H62.6133V144.765Z" fill="#E6E6E6"/>
<path id="Vector_11" d="M62.6133 166.931H126.666V167.616H62.6133V166.931Z" fill="#E6E6E6"/>
<path id="Vector_12" d="M108.431 74.7246H109.116V116.771H108.431V74.7246Z" fill="#E6E6E6"/>
<path id="Vector_13" d="M76.3699 116.749H77.0555V167.273H76.3699V116.749Z" fill="#E6E6E6"/>
<path id="Vector_14" d="M76.7127 130.62H125.181V131.305H76.7127V130.62Z" fill="#E6E6E6"/>
<path id="Vector_15" d="M108.522 167.273H109.208V182.63H108.522V167.273Z" fill="#E6E6E6"/>
<path id="Vector_16" d="M64.0301 102.535H108.682V103.221H64.0301V102.535Z" fill="#E6E6E6"/>
<g id="Group">
<path id="Vector_17" d="M72.7137 50.7145L73.3467 50.4494L83.4471 74.5875L82.8141 74.8526L72.7137 50.7145Z" fill="#E6E6E6"/>
</g>
<path id="Vector_18" d="M103.769 55.9863H104.454V74.7246H103.769V55.9863Z" fill="#E6E6E6"/>
<path id="Vector_19" d="M122.142 85.1221C122.142 91.2691 112.635 105.574 109.87 109.619C109.596 110.03 109.025 110.145 108.613 109.847C108.522 109.779 108.431 109.71 108.385 109.619C105.62 105.574 96.1137 91.2463 96.1137 85.1221C96.1137 77.9238 101.941 72.0967 109.139 72.0967C116.337 72.0967 122.142 77.9238 122.142 85.1221Z" fill="#285CFC"/>
<path id="Vector_20" d="M115.743 84.208C115.743 87.8688 112.777 90.835 109.116 90.835C105.455 90.835 102.489 87.8688 102.489 84.208C102.489 80.5472 105.455 77.5811 109.116 77.5811C112.777 77.5811 115.743 80.5472 115.743 84.208Z" fill="white"/>
<path id="Vector_21" d="M83.5864 167.129L108.687 116.986L109.299 117.292L84.1989 167.438L83.5864 167.129Z" fill="#E6E6E6"/>
<path id="Vector_22" d="M144.833 127.992C145.953 128.586 147.347 128.174 147.941 127.055C148.01 126.94 148.055 126.803 148.101 126.689L156.259 126.552L153.86 123.056L146.479 123.718C145.245 123.398 143.988 124.153 143.668 125.387C143.394 126.415 143.873 127.489 144.833 127.992Z" fill="#FFB8B8"/>
<path id="Vector_23" d="M149.723 127.9C149.198 127.9 148.787 127.489 148.787 126.963C148.787 126.94 148.787 126.94 148.787 126.918L148.946 123.17C148.969 122.713 149.312 122.324 149.769 122.279L159.23 121.205L158.91 127.443L149.746 127.9C149.746 127.9 149.746 127.9 149.723 127.9Z" fill="#285CFC"/>
<path id="Vector_24" d="M161.241 179.225L158.59 180.093L153.951 170.221L157.881 168.942L161.241 179.225Z" fill="#FFB8B8"/>
<path id="Vector_25" d="M162.772 181.579L154.179 184.389L154.134 184.275C153.54 182.424 154.545 180.436 156.373 179.842L161.629 178.128L162.772 181.579Z" fill="#2F2E41"/>
<path id="Vector_26" d="M169.079 183.338H166.291L164.965 172.529H169.079V183.338Z" fill="#FFB8B8"/>
<path id="Vector_27" d="M169.81 186.057H160.784V185.943C160.784 184.001 162.36 182.424 164.303 182.424H169.81V186.057Z" fill="#2F2E41"/>
<path id="Vector_28" d="M164.828 180.71C164.348 180.71 163.96 180.345 163.891 179.888L160.281 149.678L155.002 158.156L161.195 174.015C161.378 174.472 161.172 174.974 160.738 175.203L155.482 177.785C155.025 178.014 154.454 177.831 154.225 177.351C154.202 177.305 154.18 177.282 154.18 177.237L148.352 159.618C147.918 158.293 147.85 156.876 148.192 155.505L151.963 140.034L152.009 140.012L160.509 135.35L160.555 135.373L170.564 139.029L169.513 158.864L170.267 179.453C170.29 179.956 169.901 180.39 169.399 180.413L164.897 180.687C164.874 180.71 164.851 180.71 164.828 180.71Z" fill="#2F2E41"/>
<path id="Vector_29" d="M159.321 145.907C157.836 145.907 156.556 145.473 155.779 144.399L155.756 144.353L156.259 139.006L151.712 141.52C151.46 141.657 151.14 141.565 151.003 141.314C150.935 141.177 150.912 141.017 150.98 140.88L156.647 125.844L160.372 113.595C160.761 111.584 162.338 110.03 164.348 109.665C167.685 109.048 169.65 110.167 171.958 112.658C173.078 113.892 173.58 115.56 173.283 117.206L171.113 129.591L171.752 140.697C171.844 141.086 171.684 141.497 171.341 141.725C169.559 142.868 164.143 145.907 159.321 145.907Z" fill="#285CFC"/>
<path id="Vector_30" d="M172.506 102.238C172.506 105.343 169.99 107.859 166.885 107.859C163.779 107.859 161.263 105.343 161.263 102.238C161.263 99.1324 163.779 96.6164 166.885 96.6164C169.99 96.6164 172.506 99.1324 172.506 102.238Z" fill="#FFB8B8"/>
<path id="Vector_31" d="M168.347 142.228C169.49 141.703 170.016 140.331 169.49 139.189C169.444 139.075 169.376 138.938 169.284 138.846L174.106 132.242L169.879 132.036L165.948 138.321C164.943 139.12 164.783 140.56 165.582 141.565C166.245 142.411 167.388 142.685 168.347 142.228Z" fill="#FFB8B8"/>
<path id="Vector_32" d="M170.953 138.503C170.724 138.526 170.473 138.48 170.29 138.343L167.113 136.127C166.725 135.853 166.588 135.327 166.839 134.893L172.506 124.792L166.794 117.914C165.605 116.474 165.788 114.349 167.228 113.161C168.667 111.973 170.793 112.155 171.981 113.595C172.118 113.755 172.232 113.915 172.324 114.098L178.631 125.227C178.722 125.387 178.722 125.592 178.631 125.752L171.638 138.046C171.501 138.275 171.295 138.435 171.021 138.503C170.998 138.503 170.975 138.503 170.953 138.503Z" fill="#285CFC"/>
<path id="Vector_33" d="M164.645 101.507C164.097 101.095 163.32 101.164 162.657 100.935C161.423 100.524 160.761 99.1986 161.149 97.9647C161.286 97.5762 161.515 97.2334 161.812 96.9592C162.52 96.3193 163.526 96.1822 164.486 96.068C165.788 95.908 167.091 95.7481 168.393 95.8852C169.696 96.0223 170.998 96.4564 171.958 97.3477C173.009 98.3303 173.535 99.8156 173.535 101.255C173.489 102.695 173.101 104.112 172.369 105.369C172.141 105.848 171.798 106.26 171.387 106.58C170.953 106.877 170.336 106.945 169.901 106.625C169.536 106.351 169.399 105.894 169.239 105.46C169.079 105.026 168.804 104.592 168.347 104.523C167.776 104.432 167.319 105.026 166.771 105.209C165.994 105.483 165.148 104.889 164.828 104.135C164.508 103.38 164.6 102.535 164.691 101.712" fill="#2F2E41"/>
<path id="Vector_34" d="M214.119 185.897C214.119 186.035 214.028 186.126 213.891 186.126H20.1094C19.9723 186.126 19.8809 186.035 19.8809 185.897C19.8809 185.76 19.9723 185.669 20.1094 185.669H213.891C214.028 185.669 214.119 185.76 214.119 185.897Z" fill="#CCCCCC"/>
<path id="Vector_35" d="M112.087 116.657C112.087 118.298 110.757 119.628 109.116 119.628C107.475 119.628 106.146 118.298 106.146 116.657C106.146 115.016 107.475 113.687 109.116 113.687C110.757 113.687 112.087 115.016 112.087 116.657Z" fill="#285CFC"/>
<path id="Vector_36" d="M150.935 84.1851C149.701 85.8305 144.239 87.7728 142.685 88.2984C142.525 88.3441 142.342 88.2756 142.297 88.1156C142.274 88.0699 142.274 88.0471 142.274 88.0014C142.342 86.3561 142.685 80.5746 143.919 78.9293C145.382 76.9869 148.124 76.5984 150.066 78.0609C152.009 79.5006 152.397 82.2428 150.935 84.1851Z" fill="#F2F2F2"/>
<path id="Vector_37" d="M149.861 81.3059C149.861 82.5421 148.857 83.5453 147.621 83.5453C146.385 83.5453 145.382 82.5421 145.382 81.3059C145.382 80.0696 146.385 79.0664 147.621 79.0664C148.857 79.0664 149.861 80.0696 149.861 81.3059Z" fill="white"/>
<path id="Vector_38" d="M142.068 90.0352C142.068 90.5905 141.618 91.0406 141.063 91.0406C140.507 91.0406 140.057 90.5905 140.057 90.0352C140.057 89.4799 140.507 89.0297 141.063 89.0297C141.618 89.0297 142.068 89.4799 142.068 90.0352Z" fill="#F2F2F2"/>
<path id="Vector_39" d="M42.2068 129.523C44.035 132.311 43.9664 141.634 43.9207 144.308C43.9207 144.582 43.6922 144.787 43.418 144.787C43.3494 144.787 43.3037 144.765 43.2352 144.742C40.7672 143.736 32.1978 140.057 30.3697 137.269C28.2217 134.002 29.1357 129.614 32.4035 127.489C35.6713 125.364 40.0588 126.255 42.2068 129.523Z" fill="#F2F2F2"/>
<path id="Vector_40" d="M39.6018 132.996C39.6018 134.977 37.9953 136.584 36.0141 136.584C34.0328 136.584 32.4264 134.977 32.4264 132.996C32.4264 131.015 34.0328 129.408 36.0141 129.408C37.9953 129.408 39.6018 131.015 39.6018 132.996Z" fill="white"/>
<path id="Vector_41" d="M47.2799 147.713C47.2799 148.608 46.5532 149.335 45.6574 149.335C44.7616 149.335 44.035 148.608 44.035 147.713C44.035 146.817 44.7616 146.09 45.6574 146.09C46.5532 146.09 47.2799 146.817 47.2799 147.713Z" fill="#F2F2F2"/>
</g>
</svg>
