<svg preserveAspectRatio="none" overflow="visible" style="display: block;" width="30" height="30" viewBox="0 0 30 30" fill="none" xmlns="http://www.w3.org/2000/svg">
<g id="Frame" clip-path="url(#clip0_0_21)">
<path id="Vector" d="M14.9924 1.54156V10.5038C17.4106 10.5038 19.3753 12.4534 19.3753 14.8413C19.3753 15.7783 19.073 16.6549 18.5592 17.3652L26.1763 22.4584C27.6121 20.3275 28.4433 17.7582 28.4433 14.9924C28.4433 7.57179 22.4282 1.54156 14.9924 1.54156Z" fill="#285CFC"/>
<path id="Vector_2" d="M5.5466 3.35516C5.86398 3.09824 6.19647 2.84131 6.54408 2.61461C6.19647 2.84131 5.86398 3.08312 5.5466 3.35516ZM1.82872 7.8136C2.40302 6.75567 3.11335 5.75819 3.92947 4.88161C3.11335 5.75819 2.41814 6.74055 1.82872 7.8136ZM4.95718 3.8539C5.0932 3.733 5.24433 3.61209 5.38035 3.49118C5.24433 3.59698 5.0932 3.733 4.95718 3.8539ZM0.982368 9.6272C1.20907 9.02267 1.48111 8.44836 1.78338 7.87406C1.48111 8.44836 1.22418 9.02267 0.982368 9.6272ZM22.6096 27.9144C22.5793 27.9295 22.5642 27.9446 22.534 27.9597C22.5642 27.9446 22.5945 27.9295 22.6096 27.9144ZM0.604534 10.7909C0.649874 10.6247 0.695214 10.4736 0.755668 10.3073C0.695214 10.4584 0.649874 10.6247 0.604534 10.7909ZM18.3325 29.6222C18.3023 29.6373 18.2569 29.6373 18.2267 29.6524C18.2569 29.6373 18.3023 29.6222 18.3325 29.6222ZM18.7859 29.5013C18.7708 29.5013 18.7708 29.5013 18.7557 29.5164C18.7708 29.5164 18.7708 29.5013 18.7859 29.5013ZM20.1008 29.0932C20.0705 29.1083 20.0403 29.1083 20.0101 29.1234C20.0554 29.1083 20.0856 29.1083 20.1008 29.0932ZM19.7078 29.2292C19.6625 29.2443 19.6322 29.2594 19.5869 29.2746C19.6171 29.2594 19.6625 29.2443 19.7078 29.2292ZM21.0076 28.7305C20.9773 28.7456 20.9471 28.7607 20.9018 28.7758C20.932 28.7607 20.9773 28.7456 21.0076 28.7305ZM16.4736 29.9093C16.4282 29.9093 16.3829 29.9244 16.3375 29.9244C16.3829 29.9244 16.4282 29.9244 16.4736 29.9093ZM17.9093 29.6977C17.864 29.7128 17.8186 29.7128 17.7733 29.728C17.8186 29.728 17.864 29.7128 17.9093 29.6977ZM20.539 28.927C20.5239 28.927 20.5239 28.927 20.5088 28.9421C20.5239 28.9421 20.5239 28.927 20.539 28.927ZM15.5819 29.9698H15.4458C15.4912 29.9849 15.5365 29.9849 15.5819 29.9698ZM24.4534 26.6297C24.4383 26.6448 24.4232 26.6599 24.3929 26.6751C24.4081 26.6599 24.4383 26.6448 24.4534 26.6297ZM14.9924 0C14.5239 0 14.0705 0.0151134 13.6171 0.0604534C14.0705 0.0151134 14.539 0 14.9924 0ZM26.6751 24.3929C26.66 24.4081 26.66 24.4232 26.6448 24.4383C26.66 24.4232 26.6751 24.4081 26.6751 24.3929ZM26.9471 24.0453L26.9169 24.0756C26.932 24.0605 26.9471 24.0605 26.9471 24.0453ZM24.1058 26.9018C24.0907 26.9169 24.0605 26.932 24.0453 26.9471C24.0756 26.932 24.0907 26.9169 24.1058 26.9018ZM23.335 27.4458L23.3199 27.461C23.335 27.461 23.335 27.461 23.335 27.4458ZM6.72544 2.4937L7.22418 2.17632C7.05793 2.267 6.89169 2.3728 6.72544 2.4937ZM10.0806 0.831234C10.1108 0.816121 10.1562 0.801008 10.1864 0.785894C10.1411 0.801008 10.1108 0.816121 10.0806 0.831234ZM4.51889 4.27708L4.26196 4.53401C4.33753 4.44333 4.42821 4.35264 4.51889 4.27708Z" fill="#285CFC"/>
<path id="Vector_3" d="M14.9924 19.194C12.5743 19.194 10.6096 17.2443 10.6096 14.8564C10.6096 12.4534 12.5743 10.5189 14.9924 10.5189V1.54156C7.55667 1.54156 1.54156 7.57179 1.54156 14.9924C1.54156 22.4282 7.57179 28.4433 14.9924 28.4433C19.6625 28.4433 23.7733 26.0705 26.1763 22.4584L18.5592 17.3804C17.7582 18.4685 16.4584 19.194 14.9924 19.194Z" fill="#285CFC"/>
<path id="Vector_4" d="M14.9924 19.194C12.5743 19.194 10.6096 17.2443 10.6096 14.8564C10.6096 12.4534 12.5743 10.5189 14.9924 10.5189V1.54156C7.55667 1.54156 1.54156 7.57179 1.54156 14.9924C1.54156 22.4282 7.57179 28.4433 14.9924 28.4433C19.6625 28.4433 23.7733 26.0705 26.1763 22.4584L18.5592 17.3804C17.7582 18.4685 16.4584 19.194 14.9924 19.194Z" fill="#285CFC"/>
<path id="Vector_5" d="M18.5592 17.3804C19.073 16.67 19.3753 15.7935 19.3753 14.8564C19.3753 12.4534 17.4106 10.5189 14.9924 10.5189V15.0076L18.5592 17.3804Z" fill="white"/>
<path id="Vector_6" d="M10.6096 14.8413C10.6096 17.2443 12.5743 19.1788 14.9924 19.1788C16.4584 19.1788 17.7582 18.4685 18.5592 17.3652L14.9924 14.9924V10.5038C12.5743 10.5038 10.6096 12.4534 10.6096 14.8413Z" fill="white"/>
<path id="Vector_7" d="M20.0252 29.1234C19.9194 29.1537 19.8136 29.199 19.7078 29.2292C19.8136 29.199 19.9194 29.1688 20.0252 29.1234ZM25.4207 25.7683C25.1033 26.0705 24.7859 26.3577 24.4534 26.6297C24.7859 26.3577 25.1184 26.0705 25.4207 25.7683ZM20.5088 28.9421C20.3728 29.0025 20.2368 29.0479 20.1008 29.0932C20.2368 29.0479 20.3728 28.9874 20.5088 28.9421ZM22.534 27.9597C22.4131 28.0353 22.2922 28.0957 22.1864 28.1562C22.3073 28.0957 22.4131 28.0202 22.534 27.9597ZM22.1713 28.1562C22.0504 28.2317 21.9144 28.2922 21.7783 28.3678C21.9144 28.3073 22.0353 28.2317 22.1713 28.1562ZM24.3929 26.6751C24.3023 26.7506 24.1965 26.8262 24.1058 26.9018C24.2116 26.8262 24.3023 26.7506 24.3929 26.6751ZM22.9118 27.733C22.8212 27.7935 22.7154 27.8539 22.6247 27.9144C22.7154 27.8539 22.806 27.7935 22.9118 27.733ZM23.7128 27.204C23.5919 27.2947 23.471 27.3703 23.3501 27.461C23.471 27.3703 23.5919 27.2796 23.7128 27.204ZM20.9018 28.7758C20.7809 28.8212 20.6599 28.8816 20.539 28.927C20.6599 28.8816 20.7809 28.8363 20.9018 28.7758ZM21.2947 28.5945C21.1889 28.6398 21.0982 28.6851 20.9924 28.7305C21.0982 28.6851 21.204 28.6398 21.2947 28.5945ZM21.733 28.398C21.6272 28.4584 21.5214 28.5038 21.4005 28.5642C21.5063 28.5038 21.6121 28.4433 21.733 28.398ZM6.54408 2.61461C6.60453 2.56927 6.66499 2.53904 6.72544 2.4937C6.66499 2.52393 6.60453 2.56927 6.54408 2.61461ZM9.49118 1.04282C9.68766 0.967254 9.86902 0.891688 10.0655 0.831234C9.88413 0.891688 9.68766 0.967254 9.49118 1.04282ZM5.38035 3.47607C5.44081 3.43073 5.48615 3.38539 5.5466 3.34005C5.48615 3.4005 5.44081 3.43073 5.38035 3.47607ZM7.22418 2.17632C7.34509 2.10076 7.48111 2.02519 7.60201 1.94962C7.46599 2.02519 7.34509 2.10076 7.22418 2.17632ZM4.51889 4.27708C4.67003 4.14106 4.82116 3.98992 4.97229 3.8539C4.80605 3.98992 4.65491 4.12594 4.51889 4.27708ZM3.92947 4.8665C4.03526 4.74559 4.14106 4.6398 4.26196 4.51889C4.14106 4.6398 4.03526 4.76071 3.92947 4.8665Z" fill="#285CFC"/>
<path id="Vector_8" d="M14.9924 1.54156C22.4282 1.54156 28.4433 7.57179 28.4433 14.9924C28.4433 17.7582 27.6121 20.3275 26.1763 22.4584L27.461 23.3199C27.2947 23.5617 27.1285 23.8035 26.9471 24.0453C28.8514 21.5365 29.9849 18.3929 29.9849 14.9924C29.9849 6.71033 23.2746 0 14.9924 0V1.54156Z" fill="white"/>
<path id="Vector_9" d="M10.1864 0.785894C10.4736 0.680101 10.7758 0.604534 11.0781 0.513854C10.7758 0.604534 10.4736 0.695214 10.1864 0.785894ZM1.79849 7.87405C1.8136 7.84383 1.82872 7.82871 1.84383 7.79849C1.8136 7.82871 1.79849 7.85894 1.79849 7.87405ZM26.6448 24.4383C26.3728 24.7859 26.0856 25.1033 25.7683 25.4207C26.0856 25.1033 26.3728 24.7708 26.6448 24.4383ZM26.9169 24.0756C26.8413 24.1814 26.7506 24.2872 26.6751 24.3929C26.7657 24.2872 26.8413 24.1814 26.9169 24.0756ZM12.6952 0.18136C12.9975 0.13602 13.3149 0.0906801 13.6171 0.0755668C13.3149 0.0906801 12.9975 0.120907 12.6952 0.18136ZM0.755667 10.2922C0.831234 10.0655 0.906801 9.83879 0.997481 9.6272C0.906801 9.8539 0.831234 10.0655 0.755667 10.2922ZM17.335 29.8035C17.199 29.8186 17.063 29.8489 16.927 29.864C17.0781 29.8489 17.199 29.8338 17.335 29.8035ZM17.7733 29.728C17.6675 29.7431 17.5768 29.7582 17.471 29.7884C17.5768 29.7733 17.6675 29.7431 17.7733 29.728ZM18.2267 29.6373C18.1209 29.6524 18.0151 29.6826 17.9093 29.6977C18.0151 29.6826 18.1209 29.6675 18.2267 29.6373ZM18.7557 29.5164C18.6196 29.5466 18.4836 29.5919 18.3325 29.6222C18.4685 29.5768 18.6196 29.5466 18.7557 29.5164ZM0.0755667 13.466C0.105793 13.2091 0.13602 12.9673 0.166247 12.7103C0.13602 12.9521 0.105793 13.2091 0.0755667 13.466ZM19.1637 29.3955C19.0428 29.4257 18.9068 29.471 18.7859 29.5013C18.9068 29.471 19.0428 29.4408 19.1637 29.3955ZM15.8841 29.9547C15.7783 29.9547 15.6725 29.9698 15.5819 29.9698C15.6725 29.9698 15.7783 29.9698 15.8841 29.9547ZM0 14.5995C0 14.3426 0.0151133 14.0856 0.04534 13.8287C0.0302267 14.1008 0.0151133 14.3426 0 14.5995Z" fill="#285CFC"/>
<path id="Vector_10" d="M25.7683 25.4207C26.0705 25.1033 26.3577 24.7708 26.6448 24.4383C26.6599 24.4232 26.6599 24.4081 26.6751 24.3929C26.7506 24.2872 26.8413 24.1814 26.9169 24.0756L26.9471 24.0453C27.1285 23.8035 27.2947 23.5617 27.461 23.3199L26.1763 22.4584C23.7582 26.0705 19.6474 28.4433 14.9924 28.4433C7.55668 28.4433 1.54156 22.4131 1.54156 14.9924C1.54156 7.55668 7.57179 1.54156 14.9924 1.54156V0C14.5239 0 14.0705 0.0151134 13.6171 0.0604534C13.3149 0.0906801 12.9975 0.120907 12.6952 0.18136C12.136 0.27204 11.6071 0.377834 11.0781 0.528967C10.7758 0.604534 10.4887 0.695214 10.1864 0.801008C10.1562 0.816121 10.1108 0.831234 10.0806 0.846348C9.88413 0.906801 9.68766 0.982368 9.5063 1.05793C8.84131 1.31486 8.20655 1.61713 7.60202 1.96474C7.48111 2.0403 7.34509 2.11587 7.22418 2.19144L6.72544 2.50882C6.66499 2.55416 6.60453 2.58438 6.54408 2.62972C6.19647 2.85642 5.86398 3.11335 5.5466 3.37028C5.48615 3.41562 5.44081 3.46096 5.38035 3.5063C5.22922 3.6272 5.0932 3.74811 4.95718 3.86902C4.80605 4.00504 4.65491 4.14106 4.50378 4.29219L4.24685 4.54912C4.14106 4.67003 4.02015 4.77582 3.91436 4.89673C3.11335 5.75819 2.41814 6.74055 1.82872 7.8136C1.8136 7.84383 1.79849 7.85894 1.78338 7.88917C1.48111 8.44836 1.20907 9.03778 0.982368 9.64232C0.906801 9.8539 0.831234 10.0655 0.755668 10.2922C0.695214 10.4584 0.649874 10.6096 0.604534 10.7758C0.453401 11.2897 0.332494 11.8035 0.241814 12.3325C0.2267 12.4534 0.196474 12.5743 0.18136 12.7103C0.13602 12.9521 0.105793 13.2091 0.0906801 13.466C0.0755667 13.5869 0.0604534 13.7229 0.0604534 13.8438L0.0151134 14.6146V15.0076C0.0151134 23.2897 6.72544 30 15.0076 30H15.5819C15.6877 30 15.7935 29.9849 15.8841 29.9849C15.9295 29.9849 15.9899 29.9849 16.0353 29.9698C16.1411 29.9698 16.2469 29.9547 16.3526 29.9395C16.398 29.9395 16.4433 29.9395 16.4887 29.9244C16.6398 29.9093 16.7758 29.8942 16.927 29.8791H16.9572C17.0932 29.864 17.2292 29.8489 17.3652 29.8186C17.4106 29.8186 17.4559 29.8035 17.5013 29.8035C17.6071 29.7884 17.6977 29.7733 17.8035 29.7431C17.8489 29.728 17.8942 29.728 17.9395 29.7128C18.0453 29.6977 18.1511 29.6675 18.2569 29.6524C18.2872 29.6373 18.3325 29.6373 18.3627 29.6222C18.4987 29.5919 18.6499 29.5617 18.7859 29.5164C18.801 29.5164 18.801 29.5164 18.8161 29.5013C18.937 29.471 19.073 29.4408 19.194 29.3955C19.2393 29.3804 19.2695 29.3652 19.3149 29.3652C19.4207 29.335 19.5113 29.3048 19.6171 29.2746C19.6625 29.2594 19.6927 29.2443 19.738 29.2292C19.8438 29.199 19.9496 29.1537 20.0554 29.1234C20.0856 29.1083 20.1159 29.1083 20.1461 29.0932C20.2821 29.0479 20.4181 28.9874 20.5542 28.9421C20.5693 28.9421 20.5693 28.9421 20.5844 28.927C20.7053 28.8816 20.8262 28.8212 20.9471 28.7758C20.9773 28.7607 21.0076 28.7456 21.0529 28.7305C21.1587 28.6851 21.2494 28.6398 21.3552 28.5945C21.3854 28.5793 21.4156 28.5642 21.461 28.5491C21.5668 28.5038 21.6725 28.4433 21.7935 28.3829C21.8086 28.3678 21.8237 28.3678 21.8539 28.3526C21.9899 28.2922 22.1108 28.2166 22.2469 28.1411C22.2469 28.1411 22.262 28.1411 22.262 28.1259C22.3829 28.0655 22.5038 27.9899 22.6096 27.9295C22.6398 27.9144 22.6549 27.8992 22.6851 27.8841C22.7909 27.8237 22.8816 27.7632 22.9723 27.7028C23.0025 27.6877 23.0176 27.6725 23.0479 27.6574C23.1537 27.5819 23.2746 27.5214 23.3804 27.4458L23.3955 27.4307C23.5164 27.34 23.6373 27.2645 23.7582 27.1738C23.8791 27.0982 23.9849 27.0076 24.0907 26.9169C24.1058 26.9018 24.136 26.8866 24.1511 26.8715C24.2418 26.796 24.3476 26.7204 24.4383 26.6448C24.4534 26.6297 24.4685 26.6146 24.4987 26.5995C24.8312 26.3275 25.1637 26.0403 25.466 25.738L25.5113 25.6927C25.602 25.602 25.6927 25.5113 25.7683 25.4207Z" fill="white"/>
</g>
<defs>
<clipPath id="clip0_0_21">
<rect width="30" height="30" fill="white"/>
</clipPath>
</defs>
</svg>
